<?xml version="1.0" encoding="UTF-8" standalone="no"?>
<!-- Generator: Adobe Illustrator 20.0.0, SVG Export Plug-In . SVG Version: 6.00 Build 0)  -->

<svg
   xmlns:dc="http://purl.org/dc/elements/1.1/"
   xmlns:cc="http://creativecommons.org/ns#"
   xmlns:rdf="http://www.w3.org/1999/02/22-rdf-syntax-ns#"
   xmlns:svg="http://www.w3.org/2000/svg"
   xmlns="http://www.w3.org/2000/svg"
   xmlns:sodipodi="http://sodipodi.sourceforge.net/DTD/sodipodi-0.dtd"
   xmlns:inkscape="http://www.inkscape.org/namespaces/inkscape"
   version="1.1"
   id="Icons"
   x="0px"
   y="0px"
   width="24.200001"
   height="24.1"
   viewBox="0 0 24.2 24.1"
   xml:space="preserve"
   sodipodi:docname="campground-black-22.svg"
   inkscape:version="0.92.4 (5da689c313, 2019-01-14)"
   inkscape:export-filename="C:\Users\Greg\Geog777_Project2\img\campground-black-22.png"
   inkscape:export-xdpi="96"
   inkscape:export-ydpi="96"><metadata
   id="metadata843"><rdf:RDF><cc:Work
       rdf:about=""><dc:format>image/svg+xml</dc:format><dc:type
         rdf:resource="http://purl.org/dc/dcmitype/StillImage" /><dc:title></dc:title></cc:Work></rdf:RDF></metadata><defs
   id="defs841" /><sodipodi:namedview
   pagecolor="#ffffff"
   bordercolor="#000000"
   borderopacity="1"
   objecttolerance="10"
   gridtolerance="10"
   guidetolerance="10"
   inkscape:pageopacity="1"
   inkscape:pageshadow="2"
   inkscape:window-width="1920"
   inkscape:window-height="1001"
   id="namedview839"
   showgrid="true"
   inkscape:pagecheckerboard="true"
   inkscape:zoom="31.97"
   inkscape:cx="14.039144"
   inkscape:cy="12.662217"
   inkscape:window-x="-9"
   inkscape:window-y="-9"
   inkscape:window-maximized="1"
   inkscape:current-layer="Icons"
   fit-margin-top="1"
   fit-margin-right="1.1"
   fit-margin-left="1.1"
   fit-margin-bottom="1.1"
   borderlayer="true"
   showguides="false"><inkscape:grid
     type="xygrid"
     id="grid873"
     originx="0"
     originy="-3.8146972e-07" /></sodipodi:namedview>
<rect
   style="opacity:0.8;fill:#ffffff;fill-opacity:1;stroke:#000000;stroke-width:2.3;stroke-linecap:round;stroke-linejoin:bevel;stroke-miterlimit:4;stroke-dasharray:none;stroke-opacity:0.98843932"
   id="rect4580"
   width="24.20586"
   height="24.000414"
   x="0.00016628696"
   y="0.099585876" /><g
   id="g832"
   transform="translate(1.1,1)"
   style="fill:#005000;fill-opacity:1">
	<path
   d="M 17,21 9.4,5.8 2,21 H 0 v 1 H 19 V 21 Z M 5,21 9.5,12.5 14,21 Z"
   id="path830"
   inkscape:connector-curvature="0"
   style="fill:#005000;fill-opacity:1" />
</g>
<polygon
   points="20,18 12.3,2.9 11.5,4.7 19,19 20.5,19 "
   id="polygon834"
   transform="translate(1.1,1)"
   style="fill:#005000;fill-opacity:1" />
<polygon
   points="14.7,1.7 22,16 22,13 15.5,0 "
   id="polygon836"
   transform="translate(1.1,1)"
   style="fill:#005000;fill-opacity:1" />
<path
   style="opacity:0.8;fill:#005000;fill-opacity:1;stroke:#000000;stroke-width:0.00544554;stroke-miterlimit:4;stroke-dasharray:none;stroke-opacity:0"
   d="m 1.1054455,22.50121 v -0.47615 l 1.0002431,-0.0071 1.000243,-0.0071 3.6884915,-7.576113 c 2.0286704,-4.166948 3.6951939,-7.5761993 3.7033849,-7.5761993 0.0082,0 1.711845,3.3955083 3.785895,7.5455743 2.07405,4.150066 3.787191,7.562381 3.806979,7.582921 0.02917,0.03028 0.221007,0.03735 1.014233,0.03735 h 0.978253 v 0.476485 0.476486 H 10.594307 1.1054455 Z M 15.100495,22.002558 c 0,-0.02765 -4.457377,-8.448911 -4.488467,-8.480002 -0.02457,-0.02457 -4.5242634,8.446977 -4.5049317,8.481413 0.015508,0.02762 8.9933987,0.02621 8.9933987,-0.0014 z"
   id="path845"
   inkscape:connector-curvature="0" /><path
   style="opacity:0.8;fill:#005000;fill-opacity:1;stroke:#000000;stroke-width:0.00544554;stroke-miterlimit:4;stroke-dasharray:none;stroke-opacity:0"
   d="M 20.04692,19.866592 C 19.932658,19.665563 12.622772,5.7148309 12.622772,5.697795 c 0,-0.051388 0.774998,-1.7504535 0.790458,-1.7329591 0.01472,0.016662 7.743711,15.1698701 8.083013,15.8473011 l 0.08523,0.170173 H 20.84708 20.112688 Z"
   id="path855"
   inkscape:connector-curvature="0" /><path
   style="opacity:0.8;fill:#005000;fill-opacity:1;stroke:#000000;stroke-width:0.00544554;stroke-miterlimit:4;stroke-dasharray:none;stroke-opacity:0"
   d="M 19.443317,9.8055231 C 17.451609,5.9033586 15.82582,2.6974452 15.830453,2.6812714 c 0.0191,-0.06667 0.755045,-1.6217379 0.767613,-1.621973 0.0075,-1.406e-4 1.469352,2.9127704 3.248532,6.4731355 l 3.234874,6.4733911 -0.0084,1.447272 -0.0084,1.447272 z"
   id="path857"
   inkscape:connector-curvature="0" /><path
   style="opacity:0.8;fill:#005000;fill-opacity:1;stroke:#000000;stroke-width:0.00544554;stroke-miterlimit:4;stroke-dasharray:none;stroke-opacity:0"
   d="m 1.1054455,22.500874 v -0.476485 h 1.0006269 1.0006269 l 1.6730969,-3.4375 c 1.3650333,-2.80456 3.8654697,-7.93203 5.4196598,-11.1137156 l 0.291626,-0.597008 0.06841,0.1205229 c 0.03763,0.066288 1.743998,3.4654487 3.791933,7.5536907 2.047935,4.088243 3.737342,7.44217 3.754238,7.453173 0.0169,0.011 0.468745,0.02019 1.00411,0.02042 l 0.973391,4.17e-4 v 0.476485 0.476486 H 10.594307 1.1054455 Z M 15.100495,22.003008 c 0,-0.02878 -0.201862,-0.412887 -2.335451,-4.443965 -1.939141,-3.663702 -2.120568,-4.003822 -2.153186,-4.036574 -0.01122,-0.01127 -0.16834,0.258288 -0.349153,0.59901 -0.180813,0.340722 -0.6777617,1.275002 -1.1043318,2.076178 -2.0699403,3.887727 -3.0687691,5.791914 -3.0486587,5.812024 0.023586,0.02359 8.9907805,0.01693 8.9907805,-0.0067 z"
   id="path859"
   inkscape:connector-curvature="0" /><path
   style="opacity:0.8;fill:#005000;fill-opacity:1;stroke:#000000;stroke-width:0.00544554;stroke-miterlimit:4;stroke-dasharray:none;stroke-opacity:0"
   d="M 20.066547,19.89382 C 20.04166,19.84515 19.718225,19.229464 19.347801,18.525627 18.560614,17.029907 14.13908,8.590719 13.413398,7.1988943 13.14012,6.6747606 12.851112,6.1228424 12.771157,5.9724094 l -0.145374,-0.2735145 0.1192,-0.2766583 c 0.214653,-0.4982061 0.646175,-1.422614 0.663783,-1.4219593 0.0095,3.523e-4 0.153557,0.2668437 0.320185,0.592203 0.644219,1.2579043 3.76439,7.3761797 5.536506,10.8564137 1.021792,2.006683 1.9605,3.847618 2.086019,4.090966 l 0.228215,0.44245 h -0.733948 -0.733949 z"
   id="path861"
   inkscape:connector-curvature="0" /><path
   style="opacity:0.8;fill:#005000;fill-opacity:1;stroke:#000000;stroke-width:0.00377953;stroke-miterlimit:4;stroke-dasharray:none;stroke-opacity:0"
   d="M 21.440122,13.705001 C 19.377764,9.6637491 18.073544,7.1035676 16.831584,4.6584527 L 15.831633,2.6897932 16.062316,2.1943437 c 0.434343,-0.9328555 0.518795,-1.1080732 0.534074,-1.1080732 0.0084,0 1.470267,2.9099697 3.248562,6.4665994 l 3.233266,6.4665991 -0.0035,0.796396 c -0.0019,0.438018 -0.01112,1.071483 -0.02042,1.407701 l -0.01691,0.611305 z"
   id="path863"
   inkscape:connector-curvature="0" /><path
   style="opacity:0.8;fill:#005000;fill-opacity:1;stroke:#000000;stroke-width:0.00010291;stroke-miterlimit:4;stroke-dasharray:none;stroke-opacity:0"
   d="m 1.1054455,22.494785 v -0.462872 h 0.974994 c 0.7394138,0 0.9851556,-0.0082 1.0170495,-0.03403 0.02313,-0.01872 0.6644964,-1.314419 1.4252577,-2.879332 1.1387886,-2.342534 2.8797594,-5.915077 5.6026683,-11.49691 0.195414,-0.4005879 0.362861,-0.7283416 0.372105,-0.7283416 0.0092,0 1.710251,3.3792346 3.780014,7.5094096 2.069764,4.130176 3.780665,7.533301 3.802001,7.5625 0.03702,0.05066 0.08382,0.05347 1.021214,0.06147 l 0.982419,0.0084 v 0.4613 0.4613 H 10.594307 1.1054455 Z M 15.086114,22.000922 c 0.01996,-0.01997 -0.42345,-0.86357 -4.21027,-8.010025 -0.139871,-0.263961 -0.261913,-0.480229 -0.271206,-0.480596 -0.02046,-8.05e-4 -2.334309,4.346081 -4.2389494,7.963444 l -0.2723867,0.517327 0.1539679,0.01635 c 0.2066878,0.02195 8.8167312,0.01562 8.8388442,-0.0065 z"
   id="path865"
   inkscape:connector-curvature="0" /><path
   style="opacity:0.8;fill:#005000;fill-opacity:1;stroke:#000000;stroke-width:0.00010291;stroke-miterlimit:4;stroke-dasharray:none;stroke-opacity:0"
   d="M 20.046413,19.846888 C 19.938958,19.659282 14.526606,9.336827 13.063399,6.5288646 L 12.625203,5.6879446 12.838547,5.20832 c 0.29178,-0.6559567 0.551255,-1.2011592 0.571662,-1.2011592 0.0093,0 0.275826,0.5054146 0.592251,1.1231435 1.688877,3.2970477 7.551005,14.8018827 7.551005,14.8193727 0,0.0071 -0.324174,0.01293 -0.720387,0.01293 h -0.720386 z"
   id="path867"
   inkscape:connector-curvature="0" /><path
   style="opacity:0.8;fill:#005000;fill-opacity:1;stroke:#000000;stroke-width:0.00010291;stroke-miterlimit:4;stroke-dasharray:none;stroke-opacity:0"
   d="M 20.949304,12.742189 C 18.967419,8.857619 17.432859,5.8439495 16.327837,3.6662503 L 15.830172,2.6854882 16.204471,1.8896414 c 0.205865,-0.4377159 0.382057,-0.795847 0.391538,-0.795847 0.0095,0 1.471857,2.9075805 3.249723,6.46129 l 3.232486,6.4612896 -0.0036,0.774478 c -0.002,0.425962 -0.01119,1.060129 -0.02042,1.409258 l -0.01679,0.634781 z"
   id="path869"
   inkscape:connector-curvature="0" /><path
   style="opacity:0.8;fill:#005000;fill-opacity:1;stroke:#000000;stroke-width:0.00010291;stroke-miterlimit:4;stroke-dasharray:none;stroke-opacity:0"
   d="M 20.949304,12.742189 C 18.967419,8.857619 17.432859,5.8439495 16.327837,3.6662503 L 15.830172,2.6854882 16.204471,1.8896414 c 0.205865,-0.4377159 0.382057,-0.795847 0.391538,-0.795847 0.0095,0 1.471857,2.9075805 3.249723,6.46129 l 3.232486,6.4612896 -0.0036,0.774478 c -0.002,0.425962 -0.01119,1.060129 -0.02042,1.409258 l -0.01679,0.634781 z"
   id="path871"
   inkscape:connector-curvature="0" /><path
   style="opacity:0.8;fill:#005000;fill-opacity:1;stroke:#000000;stroke-width:0.00010291;stroke-miterlimit:4;stroke-dasharray:none;stroke-opacity:0"
   d="m 1.1065449,22.508908 v -0.490099 l 0.9461634,-3.7e-4 c 0.5203898,-2.18e-4 0.9713101,-0.0071 1.0020449,-0.01538 0.043052,-0.01156 0.4658765,-0.856943 1.8416781,-3.682178 C 9.830955,8.187739 10.482915,6.8530225 10.497725,6.853704 c 0.0088,4.05e-4 1.719092,3.401483 3.800652,7.557952 2.081559,4.156469 3.796906,7.565389 3.811881,7.575378 0.01497,0.01 0.465253,0.02217 1.000619,0.02708 l 0.973391,0.0089 v 0.487991 0.48799 H 10.595406 1.1065449 Z M 15.061724,21.986076 c 0.02176,-0.02177 -0.05644,-0.171624 -2.376981,-4.555138 -2.132977,-4.029201 -2.05303,-3.87995 -2.078318,-3.87995 -0.01167,0 -0.106454,0.156219 -0.210633,0.347153 -0.391334,0.717217 -3.5435659,6.663302 -4.0084292,7.561136 l -0.2744816,0.530132 0.2400249,0.01043 c 0.433894,0.01886 8.6892459,0.0058 8.7088179,-0.01377 z"
   id="path4582"
   inkscape:connector-curvature="0" /><path
   style="opacity:0.8;fill:#005000;fill-opacity:1;stroke:#000000;stroke-width:0.00010291;stroke-miterlimit:4;stroke-dasharray:none;stroke-opacity:0"
   d="m 1.1065449,22.508908 v -0.490099 h 0.8264515 c 0.4545483,0 0.9036832,-0.0081 0.9980775,-0.01794 L 3.1027,21.982932 3.5854653,21.000252 C 3.8509864,20.459778 5.3362524,17.413921 6.8860565,14.231681 10.584999,6.636577 10.479106,6.8529144 10.497641,6.8533178 c 0.01796,3.91e-4 1.17458,2.3005319 4.998443,9.9402792 l 2.597406,5.189391 0.373456,0.01791 c 0.205401,0.0099 0.653326,0.01791 0.995389,0.01791 h 0.621933 v 0.490099 0.490099 H 10.595406 1.1065449 Z M 15.070345,21.977115 c 0.01133,-0.01094 -0.08257,-0.189627 -2.46601,-4.692483 -2.002952,-3.784034 -1.975504,-3.732685 -1.995572,-3.733252 -0.0076,-2.18e-4 -0.03107,0.02715 -0.0521,0.06082 -0.0925,0.148119 -3.5296469,6.620204 -4.1931408,7.895613 l -0.2511686,0.482811 0.6759306,0.0097 c 0.7919333,0.01136 8.2679438,-0.0096 8.2820578,-0.0232 z"
   id="path4584"
   inkscape:connector-curvature="0" /><path
   style="opacity:0.8;fill:#008000;fill-opacity:1;stroke:#000000;stroke-width:0.00010291;stroke-miterlimit:4;stroke-dasharray:none;stroke-opacity:0"
   d="m 1.1065449,22.508908 v -0.490099 h 0.6219326 c 0.3420629,0 0.791206,-0.0081 0.9980958,-0.01804 l 0.3761631,-0.01804 0.4210743,-0.860054 C 3.7554016,20.649645 5.3447349,17.389416 7.0556624,13.87772 10.508768,6.7901866 10.477951,6.8529678 10.503886,6.8529678 c 0.01017,0 1.722438,3.4042292 3.805045,7.5649532 l 3.786558,7.564954 0.59278,0.0179 c 0.326029,0.0098 0.773505,0.01793 0.99439,0.01797 l 0.401609,6.6e-5 v 0.490099 0.490099 H 10.595406 1.1065449 Z M 15.055375,21.943933 c -0.02303,-0.06349 -0.47853,-0.928352 -2.528403,-4.800688 -1.994298,-3.767351 -1.900234,-3.591217 -1.918209,-3.591804 -0.0076,-2.45e-4 -0.02872,0.02333 -0.04688,0.05239 -0.08111,0.129875 -3.4525923,6.480096 -4.2255753,7.958909 l -0.224155,0.428837 h 4.4802503 c 4.255337,0 4.479383,-0.0024 4.462968,-0.04765 z"
   id="path4610"
   inkscape:connector-curvature="0" /><path
   style="opacity:0.8;fill:#008000;fill-opacity:1;stroke:#000000;stroke-width:0.00010291;stroke-miterlimit:4;stroke-dasharray:none;stroke-opacity:0"
   d="M 20.007262,19.806557 C 19.947836,19.697986 18.511961,16.962621 16.81643,13.727968 15.120899,10.493314 13.483947,7.3710996 13.178759,6.7897129 12.873571,6.2083262 12.623633,5.7182272 12.623342,5.700604 12.62285,5.67086 13.394147,3.9098402 13.402794,3.9209625 c 0.0044,0.00566 1.629704,3.1919617 5.231622,10.2562625 2.434325,4.774345 2.947376,5.786188 2.947376,5.812833 0,0.0076 -0.329958,0.0139 -0.733241,0.0139 H 20.11531 Z"
   id="path4612"
   inkscape:connector-curvature="0" /><path
   style="opacity:0.8;fill:#008000;fill-opacity:1;stroke:#000000;stroke-width:0.00010291;stroke-miterlimit:4;stroke-dasharray:none;stroke-opacity:0"
   d="M 19.784763,10.494377 C 17.980245,6.9592667 16.347554,3.7581592 16.15656,3.3808048 L 15.809298,2.694706 16.195218,1.8740844 c 0.212256,-0.4513418 0.393085,-0.8206216 0.401842,-0.8206216 0.0088,0 1.470954,2.9083132 3.249326,6.4629183 l 3.233404,6.4629179 -0.007,1.471276 -0.007,1.471275 z"
   id="path4614"
   inkscape:connector-curvature="0" /></svg>