<svg xmlns="http://www.w3.org/2000/svg" xmlns:xlink="http://www.w3.org/1999/xlink" version="1.1" x="0px" y="0px" viewBox="0 0 32 40" style="enable-background:new 0 0 32 32;" xml:space="preserve"><g><path d="M29.93,16c-0.16,0.43-0.57,0.72-1.04,0.72h-3.25v10.6c0,0.61-0.49,1.11-1.11,1.11h-3.79c-0.61,0-1.11-0.49-1.11-1.11v-7.03   h-7.29v7.03c0,0.61-0.5,1.11-1.11,1.11H7.46c-0.61,0-1.11-0.49-1.11-1.11v-10.6H3.1c-0.46,0-0.88-0.29-1.04-0.72   c-0.15-0.43-0.03-0.93,0.32-1.22L15.28,3.84c0.41-0.35,1.02-0.35,1.43,0l12.89,10.94C29.96,15.07,30.09,15.57,29.93,16z"/></g><text x="0" y="47" fill="#000000" font-size="5px" font-weight="bold" font-family="'Helvetica Neue', Helvetica, Arial-Unicode, Arial, Sans-serif">Created by andika</text><text x="0" y="52" fill="#000000" font-size="5px" font-weight="bold" font-family="'Helvetica Neue', Helvetica, Arial-Unicode, Arial, Sans-serif">from the Noun Project</text></svg>