<svg xmlns="http://www.w3.org/2000/svg" xmlns:xlink="http://www.w3.org/1999/xlink" viewBox="0 0 100 125" version="1.1" xml:space="preserve" style="" x="0px" y="0px" fill-rule="evenodd" clip-rule="evenodd" stroke-linejoin="round" stroke-miterlimit="1.41421"><g><path d="M82.605,87.359l-14.358,-0.001l0,-19.174l19.112,0.001l0,14.42c0,2.844 -1.911,4.754 -4.754,4.754M12.642,82.605l0,-14.421l18.727,0.001l0,19.174l-13.973,-0.001c-2.844,0.001 -4.754,-1.909 -4.754,-4.754M68.247,40.526l19.111,0l0,18.439l-19.111,0l0,-18.439ZM31.369,58.965l-18.727,-0.001l0,-18.438l18.727,-0.001l0,18.439ZM59.028,87.359l-18.439,-0.001l0,-19.174l18.439,0.001l0,19.174ZM40.589,40.526l18.439,0l0,18.439l-18.439,0l0,-18.439ZM17.396,12.641l65.209,0c2.843,0 4.754,1.911 4.754,4.754l0,13.911l-74.717,0l0,-13.91c0,-2.844 1.91,-4.755 4.754,-4.755M82.605,3.421l-65.209,0c-7.919,0 -13.974,6.056 -13.974,13.974l0,65.21c0,7.918 6.055,13.974 13.974,13.974l65.209,-0.001c7.918,0.001 13.973,-6.055 13.973,-13.974l0,-65.209c0,-7.918 -6.055,-13.974 -13.973,-13.974" style="" fill="#000" fill-rule="nonzero"/></g><text x="0" y="115" fill="#000000" font-size="5px" font-weight="bold" font-family="'Helvetica Neue', Helvetica, Arial-Unicode, Arial, Sans-serif">Created by Mike Rowe</text><text x="0" y="120" fill="#000000" font-size="5px" font-weight="bold" font-family="'Helvetica Neue', Helvetica, Arial-Unicode, Arial, Sans-serif">from the Noun Project</text></svg>