<?xml version="1.0" encoding="UTF-8" standalone="no"?>
<!-- Generator: Adobe Illustrator 20.0.0, SVG Export Plug-In . SVG Version: 6.00 Build 0)  -->

<svg
   xmlns:dc="http://purl.org/dc/elements/1.1/"
   xmlns:cc="http://creativecommons.org/ns#"
   xmlns:rdf="http://www.w3.org/1999/02/22-rdf-syntax-ns#"
   xmlns:svg="http://www.w3.org/2000/svg"
   xmlns="http://www.w3.org/2000/svg"
   xmlns:sodipodi="http://sodipodi.sourceforge.net/DTD/sodipodi-0.dtd"
   xmlns:inkscape="http://www.inkscape.org/namespaces/inkscape"
   version="1.1"
   id="Icons"
   x="0px"
   y="0px"
   width="24.200001"
   height="24.1"
   viewBox="0 0 24.2 24.1"
   xml:space="preserve"
   sodipodi:docname="restrooms-black-22.svg"
   inkscape:version="0.92.4 (5da689c313, 2019-01-14)"
   inkscape:export-filename="C:\Users\Greg\Geog777_Project2\img\campground-black-22.png"
   inkscape:export-xdpi="96"
   inkscape:export-ydpi="96"><metadata
   id="metadata843"><rdf:RDF><cc:Work
       rdf:about=""><dc:format>image/svg+xml</dc:format><dc:type
         rdf:resource="http://purl.org/dc/dcmitype/StillImage" /><dc:title></dc:title></cc:Work></rdf:RDF></metadata><defs
   id="defs841" /><sodipodi:namedview
   pagecolor="#ffffff"
   bordercolor="#000000"
   borderopacity="1"
   objecttolerance="10"
   gridtolerance="10"
   guidetolerance="10"
   inkscape:pageopacity="1"
   inkscape:pageshadow="2"
   inkscape:window-width="1920"
   inkscape:window-height="1001"
   id="namedview839"
   showgrid="true"
   inkscape:pagecheckerboard="true"
   inkscape:zoom="31.97"
   inkscape:cx="13.382278"
   inkscape:cy="12.662217"
   inkscape:window-x="-9"
   inkscape:window-y="-9"
   inkscape:window-maximized="1"
   inkscape:current-layer="Icons"
   fit-margin-top="1"
   fit-margin-right="1.1"
   fit-margin-left="1.1"
   fit-margin-bottom="1.1"
   borderlayer="true"
   showguides="false"><inkscape:grid
     type="xygrid"
     id="grid873"
     originx="0"
     originy="-3.8146972e-07" /></sodipodi:namedview>
<rect
   style="opacity:0.8;fill:#ffffff;fill-opacity:1;stroke:#000000;stroke-width:2.02017426;stroke-linecap:round;stroke-linejoin:bevel;stroke-miterlimit:4;stroke-dasharray:none;stroke-opacity:0.98843934"
   id="rect4580"
   width="24.717434"
   height="23.98024"
   x="-0.36509848"
   y="0.10967298" />


<g
   transform="translate(1,1.1000008)"
   id="g13000"><rect
     x="11"
     y="2"
     width="2"
     height="18"
     id="rect12990" /><polygon
     points="15,8 15,13 16,13 16,8 17,8 17,20 18,20 18,14 19,14 19,20 20,20 20,8 21,8 21,13 22,13 22,8 22,7 21,7 21,6 20,6 19,6 18,6 17,6 16,6 16,7 15,7 "
     id="polygon12992" /><polygon
     points="3,9 1,15 3,15 3,20 4,20 4,15 5,15 5,20 6,20 6,15 8,15 6,9 6,8 7,8 8,12 9,12 8,8 8,7 6,6 3,6 1,7 1,8 0,12 1,12 2,8 3,8 "
     id="polygon12994" /><circle
     cx="4.5"
     cy="3.5"
     r="1.5"
     id="circle12996" /><circle
     cx="18.5"
     cy="3.5"
     r="1.5"
     id="circle12998" /></g></svg>