<?xml version="1.0" encoding="UTF-8" standalone="no"?>
<!-- Generator: Adobe Illustrator 20.0.0, SVG Export Plug-In . SVG Version: 6.00 Build 0)  -->

<svg
   xmlns:dc="http://purl.org/dc/elements/1.1/"
   xmlns:cc="http://creativecommons.org/ns#"
   xmlns:rdf="http://www.w3.org/1999/02/22-rdf-syntax-ns#"
   xmlns:svg="http://www.w3.org/2000/svg"
   xmlns="http://www.w3.org/2000/svg"
   xmlns:sodipodi="http://sodipodi.sourceforge.net/DTD/sodipodi-0.dtd"
   xmlns:inkscape="http://www.inkscape.org/namespaces/inkscape"
   version="1.1"
   id="Icons"
   x="0px"
   y="0px"
   width="24.200001"
   height="24.1"
   viewBox="0 0 24.2 24.1"
   xml:space="preserve"
   sodipodi:docname="sequoia-good.svg"
   inkscape:version="0.92.4 (5da689c313, 2019-01-14)"
   inkscape:export-filename="C:\Users\Greg\Geog777_Project2\img\campground-black-22.png"
   inkscape:export-xdpi="96"
   inkscape:export-ydpi="96"><metadata
   id="metadata843"><rdf:RDF><cc:Work
       rdf:about=""><dc:format>image/svg+xml</dc:format><dc:type
         rdf:resource="http://purl.org/dc/dcmitype/StillImage" /><dc:title></dc:title></cc:Work></rdf:RDF></metadata><defs
   id="defs841" /><sodipodi:namedview
   pagecolor="#ffffff"
   bordercolor="#000000"
   borderopacity="1"
   objecttolerance="10"
   gridtolerance="10"
   guidetolerance="10"
   inkscape:pageopacity="1"
   inkscape:pageshadow="2"
   inkscape:window-width="1920"
   inkscape:window-height="1001"
   id="namedview839"
   showgrid="true"
   inkscape:pagecheckerboard="true"
   inkscape:zoom="22.606204"
   inkscape:cx="5.9429475"
   inkscape:cy="10.846159"
   inkscape:window-x="-9"
   inkscape:window-y="-9"
   inkscape:window-maximized="1"
   inkscape:current-layer="layer1"
   fit-margin-top="1"
   fit-margin-right="1.1"
   fit-margin-left="1.1"
   fit-margin-bottom="1.1"
   borderlayer="true"
   showguides="false"><inkscape:grid
     type="xygrid"
     id="grid873"
     originx="0"
     originy="-3.8146972e-07" /></sodipodi:namedview>



<g
   inkscape:groupmode="layer"
   id="layer1"
   inkscape:label="Layer 1"
   style="display:inline"><ellipse
     style="fill:#668000;fill-rule:evenodd;fill-opacity:1"
     id="path1453"
     cx="12.098449"
     cy="12.1"
     rx="12.231155"
     ry="12" /></g><g
   inkscape:groupmode="layer"
   id="layer2"
   inkscape:label="Tree"
   style="display:inline"><path
     inkscape:connector-curvature="0"
     style="display:inline;fill:#ffffff;stroke:#000000;stroke-width:0;stroke-miterlimit:4;stroke-dasharray:none"
     d="m 11.231868,0.69628226 c 0.061,-0.022938 0.124952,-0.040478 0.188902,-0.058693 0.0728,0.032385 0.157422,0.050597 0.241043,0.061394 0.0974,0.090405 0.141673,0.2098174 0.279416,0.2779676 0.111184,-0.00134 0.217432,-0.032385 0.326642,-0.02901 0.08561,0.013493 0.108245,0.086356 0.1889,0.10659474 0.07083,0.019565 0.15055,0.024287 0.217433,0.048576 0.05214,0.032385 0.100351,0.068139 0.154469,0.0985 0.06198,0.033057 0.06295,0.090404 0.08952,0.135604 0.03737,-0.026986 0.05608,-0.074888 0.121018,-0.075562 0.03835,0.03036 0.06692,0.087029 0.136762,0.074888 0.09149,-0.023612 0.168242,-0.072861 0.268592,-0.071514 0.02262,0.035081 0.04428,0.068138 0.06494,0.103223 0.04623,0.010792 0.117084,0.00472 0.131849,0.046551 0.02558,0.051949 0.04034,0.1065946 0.0787,0.1544947 -0.07083,0.056672 -0.122985,0.1295331 -0.104298,0.2077918 0.0315,0.0054 0.06494,0.010793 0.09545,0.016192 0.02361,0.053971 0.02951,0.1376297 0.134773,0.1430265 0.05314,-0.026987 0.07772,-0.073537 0.133793,-0.097149 0.04428,-0.011466 0.09149,-0.00607 0.138719,-0.014842 0.03936,-0.012819 0.06887,-0.055324 0.120016,-0.04183 0.07083,0.00809 0.08265,0.061394 0.10134,0.099849 0.01669,0.039804 0.07181,0.062742 0.113138,0.089052 -0.02755,0.041829 -0.05412,0.08568 -0.06985,0.1302075 -0.01485,0.058694 0.05412,0.1200878 0.01078,0.1774333 -0.02558,0.038454 -0.09642,0.031709 -0.147581,0.044525 0.02164,-0.022264 0.05313,-0.041154 0.06003,-0.068814 -0.03445,-0.024287 -0.08069,-0.03778 -0.122985,-0.053297 0.0059,-0.033733 0.01377,-0.066791 0.02164,-0.099174 -0.05313,0.015518 -0.113139,0.03036 -0.141673,0.067465 -0.01566,0.029684 -0.01172,0.063418 -0.01566,0.095126 0.02852,0.00271 0.05511,0.00675 0.08069,0.010793 0.02854,0.053296 0.09446,0.086356 0.152507,0.1241362 0.06886,0.088379 -0.0659,0.1889013 0.01377,0.2745823 0.0187,0.024287 0.04327,0.047227 0.07478,0.065442 0.02558,-6.736e-4 0.05017,-0.00405 0.07772,-0.00675 0.0037,0.010792 0.01485,0.029011 0.0187,0.038455 0.05804,-0.014168 0.115105,-0.046551 0.179064,-0.040478 0.06198,0.036433 0.119039,0.080958 0.198738,0.099849 0.02262,-0.027661 0.0482,-0.058019 0.01968,-0.087703 -0.02164,-0.045877 -0.0974,-0.049248 -0.154467,-0.057345 0.01669,-0.00945 0.03346,-0.02024 0.05017,-0.029683 -0.0059,-0.045877 -0.02262,-0.1018715 0.02656,-0.1410011 0.08167,-0.025637 0.177093,-0.022938 0.263675,-0.03036 0.02362,0.028336 0.04723,0.058019 0.07083,0.086356 0.06886,0.00878 0.136761,0.023612 0.205626,0.035081 0.03049,0.080284 0.05214,0.1612427 0.06002,0.2435498 0.0087,0.051949 -0.04623,0.094453 -0.0482,0.1457237 -0.0029,0.06072 0.02164,0.1207621 0.01566,0.1801332 -0.04132,0.065442 -0.09051,0.1288588 -0.08952,0.2017206 0.09643,0.020913 0.191851,0.044525 0.294175,0.045201 0.04527,0.00405 0.101352,-0.00337 0.136761,0.023612 0.0728,0.04183 0.07378,0.1167132 0.150549,0.1565202 0.0669,0.035756 0.04328,0.099849 0.05214,0.1504461 -0.02854,0.00743 -0.05804,0.01619 -0.08656,0.022939 -0.0098,0.034407 -0.02066,0.068813 -0.04034,0.1005219 -0.02262,0.032385 -0.06494,0.053296 -0.08952,0.08568 -0.0187,0.052622 -0.0059,0.1086197 -0.01276,0.1632656 -0.0059,0.055997 -0.02559,0.1167132 0.0069,0.1713624 0.05115,0.037107 0.1289,0.055997 0.179065,0.095126 0.03346,0.070166 -0.02262,0.1356043 -0.0728,0.1942984 -0.04525,-0.020239 -0.09446,-0.049249 -0.151528,-0.03036 -0.04724,0.019565 -0.08561,0.051949 -0.110195,0.08568 0.0059,0.047227 0.0738,0.076911 0.09545,0.1194137 0.03543,0.068813 0.108223,0.1234618 0.145606,0.1902527 0.0087,-0.096475 0.160362,-0.1167144 0.242033,-0.1781078 0.04624,-0.027661 0.06985,-0.078933 0.13872,-0.085007 0.05412,-0.00743 0.106266,-0.015517 0.162342,-0.014842 0.07478,0.029009 0.09838,0.095126 0.08265,0.1511231 -0.04326,0.1119913 -0.179064,0.1963241 -0.211527,0.3110178 -0.0098,0.022939 -0.01485,0.047227 -0.03737,0.066791 -0.04723,0.019564 -0.129889,0.015518 -0.146601,0.061394 -0.02656,0.034406 0.02951,0.061393 0.05313,0.087703 0.04821,0.037108 0.06494,0.088379 0.09544,0.1322329 0.04919,0.029012 0.135751,0.017542 0.177093,0.055324 0.04328,0.036433 0.09346,0.070166 0.135767,0.109968 0.03049,0.051949 0.04034,0.1099681 0.09248,0.1544946 0.04034,0.041152 0.117084,0.055324 0.158403,0.093778 0.0069,0.036433 -0.02461,0.070838 -0.02951,0.1079426 0.03445,0.064091 0.09051,0.1200878 0.134771,0.1814817 0.0482,0.012145 0.105277,0.014842 0.143648,0.039129 0.05017,0.048575 0.06788,0.1092945 0.09838,0.1619168 0.01769,0.047901 0.110208,0.055997 0.127896,0.1038988 0.03543,0.068814 0.06199,0.141678 0.136762,0.1956496 0.0787,0.062069 0.181031,0.1315558 0.157422,0.2212852 -0.0019,0.066791 -0.105287,0.1025451 -0.119039,0.1659654 -0.02262,0.080284 -0.04329,0.1612428 -0.05706,0.2421985 -0.04625,0.027661 -0.112149,0.03778 -0.152509,0.070166 -0.05902,0.046551 -0.116095,0.092426 -0.178077,0.1376299 -0.0177,-0.022265 -0.03737,-0.043178 -0.05511,-0.06409 -0.03835,0.00472 -0.07772,0.00809 -0.116108,0.012819 -0.0029,-0.017543 -0.0059,-0.034406 -0.01078,-0.049923 -0.02362,-0.00135 -0.04723,-0.00272 -0.07083,-0.00337 0.03345,-0.058695 -0.04525,-0.099849 -0.106255,-0.1281846 -0.06985,-0.02901 -0.1397,-0.082307 -0.230224,-0.050601 -0.0037,0.017542 -0.0098,0.035759 -0.01377,0.055323 -0.02952,0.00272 -0.05903,0.00675 -0.08854,0.00878 0.01077,0.022939 0.02362,0.043854 0.03444,0.065442 -0.05214,0.056672 -0.09248,0.1194136 -0.142668,0.1794562 -0.0019,0.04183 -0.05214,0.074212 -0.0423,0.1167143 0.02755,0.00878 0.05214,0.016191 0.0787,0.023612 -0.0098,0.034407 -0.04132,0.081633 0.01669,0.1052466 0.07674,-0.011466 0.103309,-0.07421 0.152508,-0.1099682 0.114114,0.078259 0.289251,0.071514 0.437807,0.057346 0.121996,-0.018215 0.212513,0.058695 0.259738,0.126159 0.02164,0.066791 -0.06296,0.1153649 -0.100362,0.1693369 -0.0051,0.06072 0.02559,0.130207 0.103298,0.165288 0.05804,0.01282 0.121995,-0.0054 0.182012,0.0068 0.05313,0.02429 0.0974,0.06544 0.101352,0.111318 -0.0098,0.07287 -0.04527,0.149097 -0.145606,0.18553 0.0037,0.04722 0.01485,0.0958 0.01376,0.1437 -0.0087,0.0533 -0.03936,0.103902 -0.03247,0.157195 0.0187,0.105246 -0.113138,0.186204 -0.106266,0.289436 0.0051,0.07758 0.0659,0.1490972 0.1466,0.1996974 0.0797,0.0425 0.05706,0.122789 0.117085,0.173385 0.0423,0.0398 0.06788,0.08366 0.108212,0.124811 0.04919,0.04182 0.133793,0.07489 0.137742,0.13493 -0.0315,0.04384 -0.09838,0.07218 -0.122985,0.118739 -0.0059,0.08163 0.03838,0.1612432 0.04132,0.2435492 -0.03543,0.0506 -0.07478,0.101871 -0.08756,0.158544 -0.0423,0.03846 -0.07577,0.111321 -0.164303,0.09647 -0.0423,-0.0026 -0.06788,-0.02968 -0.10134,-0.04722 -0.02951,0.01551 -0.05511,0.04117 -0.09838,0.03712 -0.06788,-0.0055 -0.135766,0.0081 -0.200709,0.02295 0.02066,0.02228 0.05902,0.04317 0.05214,0.07353 -0.01484,0.11132 -0.103309,0.213866 -0.219399,0.292115 -0.061,0.03846 -0.08561,0.0931 -0.130869,0.138306 -0.03345,0.0075 -0.06789,-0.002 -0.100351,-0.0026 -0.01668,0.0081 -0.03445,0.01551 -0.05116,0.02362 0.01172,-0.09175 0.170205,-0.140327 0.148562,-0.236801 -0.05511,0.006 -0.105288,0.02025 -0.15349,0.03846 -0.03543,-0.02766 -0.07479,-0.05601 -0.0797,-0.09512 -0.01669,-0.09446 -0.08167,-0.18283 -0.175125,-0.252995 0.04326,0.0075 0.08656,0.01484 0.129875,0.02295 -0.02755,-0.08838 0.01772,-0.176761 0.01566,-0.264465 -0.02854,-0.0026 -0.05413,-0.002 -0.0797,-0.0012 0,-0.02563 -0.01172,-0.0533 0.0051,-0.07558 0.02951,-0.02968 0.07281,-0.04925 0.113137,-0.07151 -0.01172,-0.0135 -0.02558,-0.02496 -0.03737,-0.03846 0.0059,-0.01957 0.01376,-0.04116 0.02164,-0.06071 -0.02164,-0.0047 -0.04329,-0.0094 -0.06789,-0.01484 -0.02361,0.05262 -0.110181,0.03644 -0.170204,0.03644 -9.63e-4,0.03171 0,0.06545 9.65e-4,0.09851 -0.02951,0.0055 -0.06003,0.01282 -0.09149,0.01889 0.01376,0.03846 0.0364,0.07488 0.05902,0.1113212 -0.07969,-0.0026 -0.150534,-0.02563 -0.212512,-0.0587 -0.01582,0.01755 -0.03049,0.03575 -0.04624,0.05465 0.0029,-0.02091 0.0069,-0.04183 0.01172,-0.06341 0.03936,-0.01282 0.08069,-0.02766 0.118061,-0.04317 -0.01276,-0.01957 -0.02558,-0.03913 -0.03835,-0.0587 0.03737,-0.02227 0.07772,-0.04452 0.0974,-0.07691 -0.0069,-0.04047 -0.04428,-0.07757 -0.10034,-0.09175 -0.0659,-0.0041 -0.125941,0.0216 -0.161359,0.05801 0,0.02699 0.0098,0.05465 0.01968,0.08298 -0.0246,0.01821 -0.04625,0.03913 -0.0738,0.05533 -0.05511,0.01551 -0.129876,0.01551 -0.164303,0.05533 -0.01968,0.03373 -0.02262,0.07017 -0.02262,0.107264 0.02262,0.02226 0.06689,0.01018 0.0974,0.01416 -0.02755,0.0135 -0.05804,0.029 -0.08561,0.04384 0.03247,0.002 0.0659,0.0026 0.09642,0.0047 0.0098,0.02766 0.01968,0.05601 0.02951,0.08501 0.01377,-0.0026 0.03835,-0.0081 0.05214,-0.0094 0.01078,-0.03103 0.01078,-0.06949 0.05412,-0.08703 0,0.02699 -0.0019,0.05464 -0.0019,0.08163 0.09936,0.02227 0.204642,0.01144 0.302045,-0.01416 0.0187,-0.02699 0.02658,-0.05936 0.06494,-0.07691 0.03936,-0.01416 0.08561,-0.01687 0.128898,-0.0216 -9.62e-4,0.03171 -0.02461,0.05601 -0.06691,0.06949 -0.0079,0.05802 -0.08561,0.0931 -0.122985,0.144376 -0.03639,0.04117 -0.04428,0.08974 -0.05412,0.138305 -0.05214,-0.01956 -0.111171,-0.03507 -0.167261,-0.01484 0.0187,0.05128 0.05706,0.09714 0.103309,0.139652 0.02854,-0.02295 0.05904,-0.04655 0.09051,-0.06678 0.0423,-0.01282 0.08656,-0.01213 0.128899,-0.01686 0.01486,0.01821 0.02755,0.03575 0.0423,0.05397 -0.03836,-0.0094 -0.07577,-0.01889 -0.114115,-0.029 -0.03737,0.04925 -0.08363,0.09309 -0.126919,0.138305 -0.02559,-0.0026 -0.05017,-0.0067 -0.07577,-0.0094 0,0.01144 0.0019,0.02362 0.0019,0.03508 -0.02657,0.0087 -0.05214,0.01889 -0.07674,0.02699 -0.0051,-0.01416 -0.0087,-0.02631 -0.01377,-0.04047 -0.04428,0.01144 -0.09346,0.03778 -0.140678,0.01957 -0.05511,-0.01143 -0.111185,-0.0398 -0.168242,-0.01755 -0.02951,0.0055 -0.03249,0.02833 -0.04034,0.04452 -0.05901,-0.01889 -0.115105,-0.006 -0.16136,0.0216 0.03049,0.01687 0.06198,0.03441 0.09545,0.05128 -0.137742,0.01143 -0.172179,0.118064 -0.182999,0.196998 -0.09643,-0.03305 -0.126919,-0.128184 -0.245963,-0.130884 0.0069,0.02496 0.01276,0.04857 0.02261,0.07287 -0.0187,0.0012 -0.0364,0.0034 -0.05511,0.0047 -0.0051,0.04047 -0.01377,0.08096 -0.01582,0.120761 0.03936,0.01085 0.08656,0.0041 0.128899,0.0055 -0.0069,0.029 -0.02461,0.05936 -0.0029,0.08636 0.0305,0.05464 0.128899,0.08501 0.125942,0.148423 -0.04034,-0.006 -0.07577,-0.01889 -0.106266,-0.03575 -0.05608,0.02699 -0.145622,0.04587 -0.146601,0.101199 0.0019,0.04925 0.0037,0.114695 0.07772,0.138304 0.07378,0.02563 0.146601,0.05128 0.222354,0.07353 0.07379,0.02091 0.158401,0.02632 0.214481,0.06949 0.05017,0.03374 0.07674,0.08096 0.103308,0.125487 -0.0423,0.0081 -0.08561,0.01686 -0.127896,0.02495 0.0059,0.01889 0.0087,0.03913 0.01276,0.05936 0.107233,0.01484 0.244981,-0.0094 0.327625,0.05195 -0.02658,-0.0041 -0.05214,-0.0081 -0.08167,-0.01215 -0.05804,0.05128 -0.07182,0.119415 -0.09051,0.181482 0.02164,0.06813 0.07479,0.132234 0.08756,0.20307 0.01172,0.04047 -0.0423,0.07691 -0.0187,0.11604 0.03936,0.08906 0.01485,0.184854 0.07379,0.271208 0.0069,0.02631 0.04724,0.05533 0.01172,0.07893 -0.06494,0.0533 -0.165284,0.07893 -0.235143,0.129533 -0.04524,0.03104 -0.08656,0.06274 -0.131848,0.09378 -0.01772,-0.07353 -0.0187,-0.155843 -0.100362,-0.213189 -0.08167,-0.06476 -0.214483,-0.08433 -0.333528,-0.07422 -0.119038,0.01144 -0.217433,0.07218 -0.259738,0.147749 -0.02852,0.04722 0.09642,0.151799 0.09346,0.201721 0.0079,0.04384 -0.15447,0.02632 -0.178082,0.06545 -0.03836,0.04452 -0.02461,0.0958 -0.02755,0.145723 -0.111172,0.0398 -0.136762,0.08838 -0.05412,0.152473 -0.01772,0.05601 -0.03346,0.11132 -0.05902,0.165966 -0.06886,0.0075 -0.139699,0.0135 -0.202674,0.03441 -0.127896,0.0506 -0.196771,0.161242 -0.160364,0.260414 -0.237109,0.09041 -0.33746,0.155168 0.145622,0.15382 -0.01566,0.02968 -0.02164,0.0641 -0.05706,0.08568 -0.05706,0.01755 -0.09051,0.179456 -0.144627,0.201721 -0.0482,0.01821 -0.124952,-0.110649 -0.182997,-0.111995 -0.131848,0.379827 -0.281383,0.05667 -0.3719,0.08838 -0.120015,0.09446 -0.08167,0.231405 -0.09838,0.346083 -0.0315,0.227358 0.0069,0.455378 0.03543,0.680733 0.03445,0.221958 0.01172,0.443243 0.01377,0.666553 -0.02066,0.290098 0.06296,0.577489 0.107234,0.866925 0.07479,0.366339 0.0728,0.738068 0.103308,1.106426 0.02164,0.173385 0.01078,0.348129 0.04625,0.521503 0.05115,0.287391 0.10233,0.576163 0.153487,0.863554 0.03247,0.180808 0.05804,0.362968 0.125943,0.539051 0.06295,0.173385 0.104298,0.349457 0.169222,0.520841 0.03445,0.103906 0.105287,0.198346 0.166279,0.294823 0.286304,0.953945 1.135381,1.096315 1.393132,1.586784 H 8.812633 c 0,0 0.153486,-0.237478 0.214483,-0.285373 0.112148,-0.08568 0.23317,-0.167314 0.337461,-0.259066 0.118062,-0.134255 0.205623,-0.279987 0.302042,-0.420309 0.129876,-0.186205 0.256791,-0.373747 0.383707,-0.560634 0.09741,-0.145049 0.341399,-0.221286 0.404358,-0.379163 0.135768,-0.491133 0.269575,-0.981603 0.405366,-1.470749 0.06003,-0.264462 0.09149,-0.530263 0.13774,-0.795408 0.04624,-0.238152 0.07772,-0.476296 0.122009,-0.714442 0.02854,-0.190253 0.07378,-0.380516 0.06985,-0.572793 0.0098,-0.413564 -0.0059,-0.827795 0.03543,-1.240669 -0.0098,-0.145725 -0.01172,-0.290764 0.01582,-0.436504 0.0098,-0.104577 0.02558,-0.210489 0.0019,-0.315741 -0.06494,0.029 -0.09051,0.09041 -0.166282,0.107936 -0.06003,-0.0094 -0.113138,-0.03644 -0.170204,-0.05397 -0.0423,0.03507 -0.09051,0.06678 -0.140693,0.09647 -0.01377,-0.08838 -0.05017,-0.176086 -0.03835,-0.265816 -0.04427,-0.0012 -0.08656,-0.0041 -0.13087,-0.0067 -0.0029,0.02091 -0.0059,0.04384 -0.0087,0.06612 0.02262,0.02024 0.07182,0.03712 0.05804,0.06679 -0.01771,0.07017 -0.03247,0.143026 -0.09936,0.199698 0.01566,-0.0398 0.0423,-0.07691 0.04821,-0.11874 0.0059,-0.06882 -0.149539,-0.04655 -0.150548,-0.113339 -0.01486,-0.08297 -0.08952,-0.151796 -0.159385,-0.215888 -0.0423,-0.0047 -0.08265,-0.0075 -0.124952,-0.01018 0.0098,-0.04722 0.06198,-0.109965 -0.01172,-0.143701 -0.0659,-0.02024 -0.141674,-0.01214 -0.21153,-0.01551 -0.02459,-0.04857 -0.03936,-0.10187 -0.07675,-0.146398 -0.07182,-0.05262 -0.185948,-0.02766 -0.278432,-0.0243 -0.0038,-0.08906 0.08754,-0.160568 0.123975,-0.241526 0.05214,-0.09984 0.124965,-0.211164 0.07083,-0.318422 -0.05313,-0.06275 -0.176109,-0.04925 -0.264658,-0.06409 0.01669,-0.06207 0.06986,-0.11874 0.0787,-0.182157 -0.01669,-0.05735 -0.115105,-0.0479 -0.180046,-0.04384 -0.05706,0.006 -0.109204,-0.0135 -0.161362,-0.02967 -0.01669,-0.09241 -0.06789,-0.196999 0.0079,-0.284022 0.02952,-0.04384 0.103304,-0.05936 0.162342,-0.0823 0.0038,-0.01755 0.0069,-0.03712 0.01081,-0.05533 0.06295,-0.02295 0.09936,-0.06545 0.124965,-0.109292 -0.03049,-0.04046 -0.07772,-0.07287 -0.121019,-0.105922 0.0492,-0.02295 0.109204,-0.03913 0.1397,-0.07353 0.01773,-0.04317 0.01485,-0.08906 0.01773,-0.133581 0.08855,-0.05195 0.187916,-0.09512 0.287285,-0.135604 0.01583,0.02227 0.03346,0.0452 0.05115,0.06746 0.150549,0.0094 0.191851,-0.122787 0.327625,-0.143702 -0.01377,-0.01144 -0.02755,-0.02496 -0.04132,-0.03643 0.09346,-0.01074 0.181029,-0.04047 0.277448,-0.03306 0.05609,0.0012 0.113138,-0.006 0.169224,-0.01416 -0.03445,-0.06545 -0.06788,-0.132907 -0.04034,-0.202394 -0.02559,6.61e-4 -0.05115,-6.6e-4 -0.07675,0 -0.01172,-0.029 -0.03543,-0.05735 -0.03444,-0.08974 0.0187,-0.02563 0.05017,-0.04722 0.07577,-0.07017 0.03049,0.02766 0.06887,0.04992 0.116108,0.06545 -0.01968,-0.07353 0.04132,-0.134255 0.07577,-0.199023 -0.02854,-0.02766 -0.061,-0.05397 -0.08265,-0.08568 0.06789,0.01687 0.1397,0.02631 0.213495,0.02362 0.03148,0.04857 0.09838,0.08433 0.119038,0.136278 0.0423,-0.03508 0.05804,-0.08096 0.08754,-0.12211 0.03247,-0.01215 0.0659,-0.02159 0.09838,-0.03239 -0.04623,-0.04047 -0.09346,-0.08297 -0.119038,-0.133581 -0.0364,-0.06071 -0.02262,-0.126833 -0.0315,-0.191601 -0.04623,0.0263 -0.09838,0.04993 -0.13872,0.08163 -0.04425,0.03846 0.0098,0.08366 0.03049,0.120088 -0.07577,0.0081 -0.117085,0.04925 -0.153489,0.08907 -0.0364,-0.06207 0.05902,-0.149773 -0.04132,-0.192278 -0.04723,-0.0026 -0.09444,0.0034 -0.142667,0.0055 -0.02362,0.04791 -0.0029,0.09917 0.02164,0.146397 -0.02362,0 -0.04624,-6.59e-4 -0.06985,-6.59e-4 -0.0087,0.04183 0.0059,0.08366 0.03737,0.12076 -0.07378,0.0047 -0.14562,0.006 -0.215467,0.01821 -0.04624,0.0263 -0.05902,0.07219 -0.08754,0.107946 -0.0059,-0.01889 -0.01078,-0.03575 -0.01377,-0.0533 -0.07181,0.02495 -0.151528,0.03643 -0.23219,0.0398 0.0037,-0.02766 0.0087,-0.05667 0.01276,-0.08366 -0.04326,-0.01889 -0.0797,-0.04116 -0.116107,-0.06545 0.05706,-0.02091 0.116107,-0.03712 0.180045,-0.04857 -0.0051,0.04992 -0.03446,0.122114 0.05804,0.143026 0.04919,-0.01074 0.09248,-0.02834 0.13872,-0.04317 -0.0037,-0.02226 -0.01277,-0.04384 -0.01172,-0.06612 0.01485,-0.03307 0.05313,-0.06679 0.03346,-0.101199 -0.0364,-0.07219 -0.0787,-0.143027 -0.132829,-0.208469 -0.04524,0.0067 -0.09051,0.01215 -0.138719,0.01956 0.03737,-0.03643 0.06789,-0.07757 0.121018,-0.103907 0.127896,-0.01085 0.269573,0.06477 0.382722,-0.0047 -0.01377,0.02496 -0.02558,0.05128 -0.03737,0.07624 0.05804,0.01085 0.116107,0.01416 0.177092,0.01416 -0.01377,-0.04991 -0.02262,-0.09851 -0.02657,-0.147749 -0.01276,-0.0055 -0.03738,-0.01416 -0.05017,-0.01821 0.05706,-0.08297 0.126919,-0.160567 0.157422,-0.250294 -0.04723,-0.0041 -0.09642,-0.0081 -0.146602,-0.0135 0,-0.0398 0.05511,-0.05397 0.09936,-0.06545 -0.0019,-0.01282 -0.0069,-0.02631 -0.01172,-0.03913 -0.108201,-0.02295 -0.216452,-0.05667 -0.333529,-0.04857 -0.02854,0.01215 -0.05313,0.02699 -0.0787,0.04182 0.01377,0.0135 0.03049,0.02766 0.04427,0.04116 -0.0037,0.0055 -0.01377,0.01416 -0.0177,0.01889 -0.05214,-0.03102 -0.06688,-0.07556 -0.08364,-0.118739 -0.04919,0.01085 -0.103308,0.01957 -0.139699,0.04857 -0.06493,0.03913 -0.07772,0.100527 -0.100351,0.155167 0.06101,-0.01018 0.124965,-0.01821 0.185953,-0.02362 -0.0019,0.03036 -0.0079,0.06139 -0.01172,0.09042 -0.05608,-0.0012 -0.112148,-0.0047 -0.168243,-0.0067 -0.02066,-0.0398 -0.04132,-0.07757 -0.06494,-0.117384 -0.01486,0.03441 -0.02755,0.06949 -0.03936,0.105249 0.0019,-0.02699 0.0037,-0.05601 0.0059,-0.08163 -0.02658,-0.006 -0.05511,-0.01144 -0.08364,-0.01551 -0.03639,0.006 -0.06197,0.029 -0.0974,0.04182 -0.03641,-0.0094 -0.0669,-0.02631 -0.100335,-0.04117 -0.06199,0.03036 -0.13872,0.03102 -0.207598,0.04587 0.02163,0.01755 0.04327,0.03441 0.06886,0.04992 -0.0098,0.01018 -0.01968,0.01889 -0.02951,0.02967 -0.03839,-0.0047 -0.0787,-0.0094 -0.118062,-0.0094 -0.05511,0.01416 -0.104294,0.03913 -0.165283,0.03644 -9.66e-4,0.04452 -0.02066,0.09108 0.0098,0.132906 0.05115,0.0533 -0.0098,0.114022 -0.0051,0.170689 0.01081,0.03238 0.06986,0.0263 0.104294,0.03575 -0.02952,0.04047 -0.06493,0.07893 -0.08754,0.122112 -0.0051,0.0243 0.0018,0.0506 0,0.07624 -0.02066,0.029 -0.05511,0.05397 -0.06591,0.08703 0.04034,0.0026 0.08167,0.0041 0.123962,0.0041 -0.02951,0.01821 -0.05609,0.03846 -0.08069,0.05601 -0.06295,-0.05195 -0.08954,-0.126159 -0.05215,-0.190252 0.0079,-0.02159 0.02952,-0.04384 -0.0018,-0.06071 -0.05609,0.01085 -0.06789,0.0614 -0.122008,0.0742 -0.05313,0.01551 -0.109204,-6.61e-4 -0.161361,-0.0041 -0.0079,-0.02967 -0.01485,-0.05937 -0.02459,-0.08837 -0.01377,0.0012 -0.04526,0.0055 -0.06197,0.0067 -0.03445,0.0398 -0.04723,0.08501 0.0098,0.118739 -0.03149,0.04587 -0.06887,0.09309 -0.07675,0.145049 -0.0087,0.03913 -0.0051,0.07825 -0.0236,0.115368 -0.02854,0.02159 -0.07281,0.02362 -0.110207,0.02025 -0.01276,-0.05937 -0.03247,-0.118061 -0.05511,-0.176755 0.02558,-0.01144 0.05115,-0.02496 0.0797,-0.03712 -0.0038,-0.02227 -0.008,-0.0452 -0.0098,-0.06746 -0.0236,0.0081 -0.04624,0.01687 -0.06789,0.02496 -0.03049,-0.029 -0.04427,-0.07757 -0.104294,-0.07893 -0.06199,-0.01074 -0.110181,0.02227 -0.15447,0.04317 0.04034,0.03306 0.101351,0.04587 0.158401,0.05667 -0.0038,0.03239 0,0.06545 -0.01276,0.09647 -0.0492,0.03441 -0.125942,0.03779 -0.184962,0.01551 0.01669,-0.02227 0.03344,-0.04452 0.05116,-0.06478 -0.08069,-0.04925 -0.180047,-0.07287 -0.272528,-0.107948 -0.03837,0.03507 -0.07083,0.07422 -0.07379,0.119415 0.03049,0.0135 0.06297,0.02495 0.08855,0.04182 0.0187,0.0243 0.0098,0.0533 -0.0069,0.07893 -0.01377,0.0263 -0.06592,0.02295 -0.09838,0.03238 0.003,-0.01018 0.0039,-0.02766 0.005,-0.03575 0.02951,-0.01551 0.05804,-0.029 0.08559,-0.0425 -0.03738,-0.0034 -0.07576,-0.0067 -0.116095,-0.01074 0.01185,-0.06612 0.02656,-0.149098 -0.06493,-0.193623 0.04328,-0.03239 0.07575,-0.06882 0.09641,-0.10862 0.05412,-0.0075 0.106261,-0.01687 0.160368,-0.02631 -0.0089,-0.04857 -0.0079,-0.09783 -0.0098,-0.147074 -9.68e-4,-0.03036 -0.03542,-0.05464 -0.05214,-0.08163 0,-0.02834 0.0089,-0.05667 0.01485,-0.08433 -0.07379,0.02699 -0.133804,0.06882 -0.182014,0.115366 -0.02165,0.03374 -0.03345,0.07151 -0.05116,0.105924 -0.02164,-0.006 -0.04329,-0.01074 -0.06592,-0.01551 0.01475,-0.03306 0.02066,-0.06544 0.0246,-0.09917 -0.0423,0.01282 -0.08166,0.02563 -0.122982,0.04047 -0.01377,-0.04047 -0.03739,-0.08096 -0.04034,-0.122789 0.02066,-0.05397 0.061,-0.103907 0.08658,-0.155169 -0.04427,-0.01551 -0.08953,-0.03238 -0.131839,-0.05128 0.004,-0.01484 0.0089,-0.02967 0.01377,-0.0425 0.03738,0.01282 0.0728,0.03239 0.116098,0.03779 0.04525,-0.0087 0.08363,-0.02631 0.124949,-0.04047 -0.0098,-0.0533 -0.01869,-0.106585 -0.02656,-0.161917 -0.01574,0.0012 -0.04329,0.0034 -0.05706,0.0047 0.002,0.03644 0.003,0.07151 0.0049,0.107947 -0.09052,0.0506 -0.185951,-0.01144 -0.261704,-0.04791 -0.05017,0.01821 -0.105271,0.03575 -0.149546,0.06207 0.02558,0.02834 0.0551,0.05938 0.03542,0.09446 -0.01672,0.02495 0.02361,0.06949 -0.0246,0.08163 -0.09052,-0.05128 -0.197754,-0.09512 -0.272528,-0.158543 -0.04526,-0.02967 -0.0049,-0.06813 0.0079,-0.09917 -0.0187,-0.0243 -0.03837,-0.04587 -0.05608,-0.06881 0.01771,-0.02834 0.04525,-0.05937 0.02558,-0.09108 -0.03247,-0.06409 -0.08461,-0.123462 -0.115109,-0.189579 0.02656,0.0041 0.0551,0.0081 0.08166,0.01214 0.0118,-0.0135 0.02066,-0.027 0.03247,-0.03913 0.02755,-6.62e-4 0.05313,-0.0012 0.08166,-6.62e-4 -0.003,-0.02967 -0.004,-0.06003 -0.0069,-0.09041 0.04428,0.02834 0.100351,0.04117 0.161353,0.03103 0.02361,-0.04791 -0.02263,-0.08907 -0.0423,-0.133582 0.01574,-0.0425 0.02164,-0.08636 -0.01968,-0.122787 -0.01771,0.0034 -0.03345,0.006 -0.05215,0.0094 -0.0089,-0.02495 0.01377,-0.06679 -0.02951,-0.07691 -0.0246,0.02091 -0.03837,0.04791 -0.05215,0.07287 0.0089,-0.04384 0.0246,-0.09782 -0.04723,-0.1200882 -0.01968,0.04791 -0.03837,0.0958 -0.05608,0.1430272 -0.04329,-0.04587 -0.0974,-0.09241 -0.08757,-0.1504462 -0.0089,-0.06273 0.0551,-0.120761 0.136758,-0.143701 0.05313,-0.01215 0.08166,-0.0533 0.128884,-0.06949 0.07674,-0.01282 0.162337,-6.6e-4 0.235144,-0.0263 0.06395,-0.01821 0.09544,-0.06341 0.145612,-0.09512 0.07969,-0.02091 0.17611,-0.0034 0.251868,-0.03507 0.02951,-0.01821 0.04624,-0.04182 0.06789,-0.06476 0.03542,-0.0094 0.07083,-0.01687 0.109217,-0.02496 0.01869,-0.0398 0.02066,-0.09108 0.07969,-0.113337 0.08363,-0.03913 0.170208,-0.07287 0.241046,-0.122114 -0.01377,-0.09108 0.02066,-0.1814834 0.08167,-0.2617634 0.02558,-6.61e-4 0.05115,6.6e-4 0.0797,0.0013 0.02261,-0.01484 0.04624,-0.02901 0.06887,-0.04385 0.0187,0.01144 0.03936,0.02361 0.05706,0.03508 0.05214,-0.07421 0.136761,-0.132234 0.198738,-0.201721 0.09346,0.0013 0.182016,-0.0074 0.274497,-0.01144 0.06887,0.0067 0.129876,0.05128 0.202674,0.02901 0.06986,-0.0135 0.06789,-0.07421 0.08657,-0.112666 0.06003,0.02496 0.125942,0.04047 0.194804,0.02496 9.63e-4,-0.03171 0.0087,-0.06612 -9.62e-4,-0.0985 -0.03737,-0.06408 -0.145609,-0.08499 -0.194807,-0.141669 -0.02755,-0.03913 0.01968,-0.07354 0.04132,-0.107264 0.02163,-0.03711 0.01485,-0.08905 0.07379,-0.107947 0.0492,-0.0087 0.101351,-0.0034 0.150549,-0.0047 0.02755,-0.05464 0.06985,-0.104571 0.109203,-0.155843 -0.0029,-0.01552 -0.02755,-0.02294 -0.04034,-0.03306 -0.02657,0.01957 -0.0492,0.06274 -0.100347,0.0479 -0.07083,-0.0034 -0.07968,-0.05397 -0.0974,-0.0904 -0.03346,0.0061 -0.06986,0.01079 -0.107237,0.01349 0.02361,0.06814 -0.01377,0.133581 -0.05115,0.196998 -0.06884,-0.03238 -0.08262,-0.08703 -0.07574,-0.140326 -0.03049,-0.01484 -0.06493,-0.02766 -0.09248,-0.0479 -0.01081,-0.04723 0.0038,-0.0958 0.0187,-0.141678 0.02164,-0.04655 0.108201,-0.04723 0.156425,-0.073536 0.0728,-0.049249 0.114115,-0.1160395 0.122986,-0.1855302 -0.0018,-0.066791 -0.059,-0.1254847 -0.05511,-0.1929498 0.006,-0.033733 0.03247,-0.063417 0.04327,-0.0958 0.0029,-0.022265 -0.01773,-0.044526 -0.02558,-0.068139 0.02261,-0.014842 0.04624,-0.029011 0.06887,-0.043854 -0.0018,-0.010793 -0.006,-0.031709 -0.0079,-0.042503 -0.01669,0 -0.0492,-6.608e-4 -0.06789,-6.608e-4 -0.01968,0.020914 -0.03936,0.04183 -0.061,0.06409 C 9.282487,7.2756126 9.224475,7.2648186 9.16248,7.2587436 9.14971,7.3025976 9.13394,7.3457726 9.12803,7.3909764 H 9.07194 c -0.0069,-0.013493 -0.01485,-0.029011 -0.02163,-0.042503 -0.02066,0.00135 -0.04132,0.00337 -0.06197,0.00675 -0.01583,0.017542 -0.02854,0.035756 -0.04327,0.054646 -0.02656,0.00539 -0.05609,0.00945 -0.08362,0.013494 0.0069,-0.040478 0.008,-0.085007 -0.03543,-0.1180652 -0.114115,0.022265 -0.230223,0.039804 -0.341399,0.065442 -0.0051,0.062742 -0.0051,0.129533 -0.05511,0.184853 -0.05214,0.058695 -0.0974,0.1214364 -0.113138,0.1895785 0.0087,0.022939 0.02362,0.043851 0.03737,0.065442 -0.05313,0.00472 -0.105271,0.00878 -0.157422,0.014842 -0.01485,-0.041829 0.02657,-0.075562 0.04525,-0.1119913 0.0029,-0.024287 9.68e-4,-0.0479 0.0018,-0.070166 -0.0787,0.00135 -0.15545,0.011466 -0.233173,0.020914 -0.08855,0.013494 -0.158402,-0.041154 -0.245964,-0.026987 -0.0128,-0.032385 -0.02164,-0.095126 -0.09248,-0.073537 -0.08953,0.031709 -0.162335,0.082307 -0.259738,0.1079428 0.0128,0.019564 0.02558,0.041154 0.03936,0.062069 -0.03542,0.024961 -0.06592,0.048575 -0.09838,0.073536 -0.06002,-0.024961 -0.03542,-0.068813 -0.02361,-0.1065946 -0.02165,-0.028336 -0.0551,-0.051274 -0.0856,-0.075562 0.03542,-0.035081 0.08166,-0.06409 0.122001,-0.097824 0.04525,-0.061394 0.04427,-0.1329073 0.05018,-0.2003721 0.05903,-0.059368 0.164306,-0.096475 0.17808,-0.1727107 0.01475,-0.089055 0.09937,-0.1578687 0.150532,-0.2354533 0.02558,-0.053296 0.130855,-0.045877 0.169224,-0.093778 0.06199,-0.070166 0.107238,-0.1524719 0.104293,-0.234779 -0.03837,-0.00607 -0.07478,-0.014167 -0.111171,-0.024287 -0.04723,0.034403 -0.09937,0.065437 -0.149548,0.098496 -0.03345,-0.020915 -0.06395,-0.045878 -0.0915,-0.070166 -0.05313,-0.051274 -0.149546,-0.072187 -0.192838,-0.1288586 -0.02558,-0.028336 -0.0364,-0.06072 -0.03542,-0.092426 -0.05214,-0.019565 -0.118063,-0.03778 -0.126916,-0.085007 -0.04526,-0.072861 0.119046,-0.113343 0.08166,-0.1835044 -0.04526,0.02159 -0.09347,0.063417 -0.154465,0.035081 -0.08166,-0.02631 0.01574,-0.093778 -0.03542,-0.1342557 -0.05313,-0.049922 -0.04723,-0.1349299 0.04329,-0.1612427 0.05411,-0.023612 0.110194,0.00539 0.163319,0.014842 0.01475,-0.08568 -0.122984,-0.1538203 -0.08265,-0.2401757 0.03149,-0.08568 0.07182,-0.1700109 0.122984,-0.2509694 0.07871,-0.029012 0.17611,-0.016191 0.250884,-0.049922 0.04034,0.00472 0.09347,0.029009 0.124949,-6.606e-4 0.110195,-0.08568 0.159388,-0.2010465 0.192838,-0.3110177 0.02558,-0.00201 0.05017,-0.00405 0.0728,-0.00607 0.01172,-0.048575 -0.0029,-0.09715 -0.02755,-0.1443753 -0.02361,-0.039804 0.02657,-0.074214 0.05313,-0.1065946 0.04034,-0.037107 0.05706,-0.082982 0.08758,-0.1234619 0.04525,-0.043852 0.113138,-0.070166 0.172177,-0.100522 0.03835,0.01889 0.07674,0.039804 0.119038,0.053971 0.06789,0.016868 0.14758,0.00675 0.210547,0.035081 0.09051,0.040479 0.121018,0.1187393 0.210544,0.1625911 0.03543,0.017543 0.08069,0.00945 0.117085,-0.00675 C 8.999983,4.713961 8.969513,4.6572897 8.931113,4.6019698 8.972433,4.5587918 9.013743,4.5156138 9.054098,4.470414 9.088538,4.42926 9.112138,4.381359 9.16428,4.3462778 c 0.03641,-0.015517 0.08459,-0.018215 0.127896,-0.02631 -0.0187,-0.026987 -0.05412,-0.054646 -0.04723,-0.085007 0.04229,-0.06409 0.131849,-0.1065945 0.224317,-0.1349299 0.07182,-0.029684 0.13774,0.029684 0.212512,0.020239 0.04624,-0.00405 0.09936,-0.00201 0.13872,-0.019564 0,-0.039804 -0.01669,-0.078259 -0.0087,-0.1153649 0.06986,-0.066116 0.188902,-0.020914 0.284338,-0.01889 0.02755,-0.107269 -0.061,-0.2118401 -0.01669,-0.3184234 0.02559,-0.011466 0.05314,-0.026987 0.08363,-0.037107 0.03737,-0.00945 0.09051,0 0.118061,-0.025635 0.03737,-0.022265 0.01968,-0.057345 0.02164,-0.086356 -0.0098,-0.042503 0.03737,-0.078259 0.06295,-0.113343 0.02755,6.608e-4 0.05608,0.00135 0.08657,0.00201 0.02164,0.018891 0.04624,0.03778 0.06886,0.058019 0.0738,-0.014167 0.142668,0.00743 0.201692,0.035759 0.0364,-0.031709 0.03836,-0.071513 0.0069,-0.1059193 -0.02461,0.00539 -0.04919,0.012146 -0.07577,0.017541 -0.06494,-0.02631 -0.13087,-0.054646 -0.189884,-0.087704 0.03543,-0.00809 0.07379,-0.014167 0.112149,-0.022265 -0.01669,-0.014842 -0.04132,-0.023612 -0.06392,-0.031032 0.0029,-0.011466 0.0051,-0.024287 0.0051,-0.035759 -0.04328,-0.018891 -0.0846,-0.043854 -0.113138,-0.073537 0.03639,-0.044526 0.06494,-0.08973 0.09642,-0.1369529 0.07083,-0.00878 0.120017,-0.043178 0.157423,-0.081633 0.103308,0.00743 0.219399,0.0054 0.288268,0.066791 0.08265,-0.020916 0.165284,-0.039129 0.250885,-0.052622 0.01771,-0.018891 0.03543,-0.03778 0.05804,-0.053972 0.05804,0 0.110207,0.029011 0.163323,0.043854 0.0069,-0.026311 0.04326,-0.059368 0.01078,-0.083659 -0.02461,-0.021588 -0.05609,-0.041829 -0.08265,-0.061393 -0.03737,0.010792 -0.07281,0.02024 -0.110207,0.031709 -0.0187,-0.012819 -0.03737,-0.025637 -0.05511,-0.037107 0.09248,-0.014167 0.161362,-0.059368 0.233174,-0.097824 -0.01172,-0.041829 -0.0728,-0.055997 -0.121995,-0.07421 -0.01276,0.02024 -0.02262,0.040478 -0.03049,0.061394 -0.03247,0.00134 -0.06295,6.735e-4 -0.09248,0.00134 -0.02558,0.026311 -0.05115,0.051948 -0.0787,0.078259 -0.03149,-0.020915 -0.06101,-0.044525 -0.09248,-0.065442 -0.02658,0.00878 -0.05214,0.018891 -0.0787,0.026986 -0.02754,-0.026311 -0.05804,-0.049249 -0.09545,-0.068139 -0.0098,0.010115 -0.02755,0.029684 -0.03446,0.039804 -0.02459,-0.061393 -0.04524,-0.1254849 -0.07674,-0.184853 -0.03149,-0.045201 0.0019,-0.095801 -0.01377,-0.1437009 -0.136762,0.093101 -0.04428,0.029684 -0.09545,0.063418 -0.0051,-0.039129 -0.04034,-0.08568 0.0019,-0.1194137 0.05706,-0.044525 0.116108,-0.091077 0.186935,-0.1254848 0.01485,0.00202 0.03835,0.00472 0.05017,0.0054 0.02657,-0.061393 0.04132,-0.1450495 -0.04132,-0.1909271 -0.0029,-0.028336 -0.0029,-0.057344 -0.0037,-0.08703 -0.04132,0.00472 -0.09051,0.00271 -0.126919,0.02024 -0.0482,0.016866 -0.06199,0.055997 -0.08167,0.088379 -0.02066,-0.03778 -0.05017,-0.073537 -0.07772,-0.1099681 -0.07478,0.036433 -0.116108,0.092426 -0.114114,0.1544946 -0.05804,0.011466 -0.113138,0.031709 -0.156423,0.062743 0.0187,-0.036433 0.0659,-0.062743 0.08458,-0.097824 -0.0079,-0.033057 -0.02164,-0.070166 -0.061,-0.092426 -0.136762,-0.051949 -0.286303,0.036433 -0.425999,-0.00405 -0.06493,-0.035756 -0.08167,-0.093778 -0.102327,-0.1457237 0.04229,-0.00809 0.08265,-0.016192 0.125942,-0.024961 0.06198,0.033057 0.118062,0.074888 0.186936,0.099174 0.0364,-0.070166 0.0974,-0.1342556 0.140679,-0.2010464 0.03149,-0.042503 0.0098,-0.1045714 0.07675,-0.1322328 0.05412,-0.00945 0.114115,-0.011466 0.169222,-0.00472 0.10233,0.03778 0.185951,0.093103 0.284335,0.1342557 0.04328,0.018891 0.09346,0.00337 0.135768,-0.00675 0.0069,-0.049923 0.01669,-0.100522 0.01276,-0.1511233 0.09545,0.025637 0.175127,-0.020914 0.255801,-0.048575 9.64e-4,-0.0479 0.0037,-0.094453 0,-0.1416781 -0.002,-0.037814 -0.07481,-0.056029 -0.07481,-0.093809 0.04724,-0.024287 0.09936,-0.043178 0.148561,-0.064768 0.02262,0.033057 0.04428,0.066116 0.0669,0.099849 0.01078,-0.00271 0.03543,-0.00809 0.04723,-0.010115 0.01968,-0.035081 0.04524,-0.070839 0.02461,-0.1086198 -0.02558,0.00202 -0.0482,0.00271 -0.07182,0.00271 -0.01172,-0.041829 -0.0315,-0.085007 -0.02559,-0.12885884 0.0187,-0.023612 0.0482,-0.042503 0.0728,-0.063418 0.0029,-0.033733 -0.05804,-0.036433 -0.09051,-0.049924 -0.01172,-0.078932 0.171183,-0.055997 0.150548,-0.1322327 -0.04723,-0.015517 -0.09545,-0.028336 -0.142668,-0.043854 z"
     id="path883" /></g></svg>