<?xml version="1.0" encoding="UTF-8" standalone="no"?>
<!-- Generator: Adobe Illustrator 20.0.0, SVG Export Plug-In . SVG Version: 6.00 Build 0)  -->

<svg
   xmlns:dc="http://purl.org/dc/elements/1.1/"
   xmlns:cc="http://creativecommons.org/ns#"
   xmlns:rdf="http://www.w3.org/1999/02/22-rdf-syntax-ns#"
   xmlns:svg="http://www.w3.org/2000/svg"
   xmlns="http://www.w3.org/2000/svg"
   xmlns:sodipodi="http://sodipodi.sourceforge.net/DTD/sodipodi-0.dtd"
   xmlns:inkscape="http://www.inkscape.org/namespaces/inkscape"
   version="1.1"
   id="Icons"
   x="0px"
   y="0px"
   width="24.200001"
   height="24.1"
   viewBox="0 0 24.2 24.1"
   xml:space="preserve"
   sodipodi:docname="sleeping-shelter-black-22.svg"
   inkscape:version="0.92.4 (5da689c313, 2019-01-14)"
   inkscape:export-filename="C:\Users\Greg\Geog777_Project2\img\campground-black-22.png"
   inkscape:export-xdpi="96"
   inkscape:export-ydpi="96"><metadata
   id="metadata843"><rdf:RDF><cc:Work
       rdf:about=""><dc:format>image/svg+xml</dc:format><dc:type
         rdf:resource="http://purl.org/dc/dcmitype/StillImage" /><dc:title /></cc:Work></rdf:RDF></metadata><defs
   id="defs841" /><sodipodi:namedview
   pagecolor="#ffffff"
   bordercolor="#000000"
   borderopacity="1"
   objecttolerance="10"
   gridtolerance="10"
   guidetolerance="10"
   inkscape:pageopacity="1"
   inkscape:pageshadow="2"
   inkscape:window-width="1920"
   inkscape:window-height="1001"
   id="namedview839"
   showgrid="true"
   inkscape:pagecheckerboard="true"
   inkscape:zoom="31.97"
   inkscape:cx="11.521197"
   inkscape:cy="12.662217"
   inkscape:window-x="-9"
   inkscape:window-y="-9"
   inkscape:window-maximized="1"
   inkscape:current-layer="Icons"
   fit-margin-top="1"
   fit-margin-right="1.1"
   fit-margin-left="1.1"
   fit-margin-bottom="1.1"
   borderlayer="true"
   showguides="false"><inkscape:grid
     type="xygrid"
     id="grid873"
     originx="0"
     originy="-3.8146972e-07" /></sodipodi:namedview>
<rect
   style="opacity:0.8;fill:#ffffff;fill-opacity:1;stroke:#000000;stroke-width:2.02017426;stroke-linecap:round;stroke-linejoin:bevel;stroke-miterlimit:4;stroke-dasharray:none;stroke-opacity:0.98843934"
   id="rect4580"
   width="24.717434"
   height="23.98024"
   x="-0.36509848"
   y="0.10967298" />


<circle
   cx="9.5"
   cy="16.6"
   r="1.5"
   id="circle13597"
   style="fill:#aa8800" /><path
   inkscape:connector-curvature="0"
   d="m 21.8,16.100001 c 0.6,0 1.2,0.3 1.2,0.9 v 3.1 h -9 v -4 z"
   id="path13599"
   style="fill:#aa8800" /><path
   inkscape:connector-curvature="0"
   d="m 11.5,18.700001 h -2 c -0.4,0 -0.7,0.3 -0.7,0.7 0,0.4 0.3,0.7 0.7,0.7 h 2.8 c 0.4,0 0.7,-0.3 0.7,-0.7 v -2.9 c 0,-0.4 -0.3,-0.7 -0.7,-0.7 -0.4,0 -0.8,0.3 -0.8,0.7 z"
   id="path13601"
   style="fill:#aa8800" /><polygon
   points="4,10.2 4,22 5,22 6,22 22,22 22,20 6,20 6,9.2 22,1.6 22,0 20.7,0 0,9.9 0,12.1 "
   id="polygon13603"
   transform="translate(1,1.1000012)"
   style="fill:#aa8800" /></svg>