<?xml version="1.0" encoding="UTF-8" standalone="no"?>
<!-- Generator: Adobe Illustrator 20.0.0, SVG Export Plug-In . SVG Version: 6.00 Build 0)  -->

<svg
   xmlns:dc="http://purl.org/dc/elements/1.1/"
   xmlns:cc="http://creativecommons.org/ns#"
   xmlns:rdf="http://www.w3.org/1999/02/22-rdf-syntax-ns#"
   xmlns:svg="http://www.w3.org/2000/svg"
   xmlns="http://www.w3.org/2000/svg"
   xmlns:sodipodi="http://sodipodi.sourceforge.net/DTD/sodipodi-0.dtd"
   xmlns:inkscape="http://www.inkscape.org/namespaces/inkscape"
   version="1.1"
   id="Icons"
   x="0px"
   y="0px"
   width="24.200001"
   height="24.1"
   viewBox="0 0 24.2 24.1"
   xml:space="preserve"
   sodipodi:docname="trailhead-black-22.svg"
   inkscape:version="0.92.4 (5da689c313, 2019-01-14)"
   inkscape:export-filename="C:\Users\Greg\Geog777_Project2\img\campground-black-22.png"
   inkscape:export-xdpi="96"
   inkscape:export-ydpi="96"><metadata
   id="metadata843"><rdf:RDF><cc:Work
       rdf:about=""><dc:format>image/svg+xml</dc:format><dc:type
         rdf:resource="http://purl.org/dc/dcmitype/StillImage" /><dc:title></dc:title></cc:Work></rdf:RDF></metadata><defs
   id="defs841" /><sodipodi:namedview
   pagecolor="#ffffff"
   bordercolor="#000000"
   borderopacity="1"
   objecttolerance="10"
   gridtolerance="10"
   guidetolerance="10"
   inkscape:pageopacity="1"
   inkscape:pageshadow="2"
   inkscape:window-width="1920"
   inkscape:window-height="1001"
   id="namedview839"
   showgrid="true"
   inkscape:pagecheckerboard="true"
   inkscape:zoom="31.97"
   inkscape:cx="13.382278"
   inkscape:cy="12.662217"
   inkscape:window-x="-9"
   inkscape:window-y="-9"
   inkscape:window-maximized="1"
   inkscape:current-layer="Icons"
   fit-margin-top="1"
   fit-margin-right="1.1"
   fit-margin-left="1.1"
   fit-margin-bottom="1.1"
   borderlayer="true"
   showguides="false"><inkscape:grid
     type="xygrid"
     id="grid873"
     originx="0"
     originy="-3.8146972e-07" /></sodipodi:namedview>
<rect
   style="opacity:0.8;fill:#ffffff;fill-opacity:1;stroke:#000000;stroke-width:2.02017426;stroke-linecap:round;stroke-linejoin:bevel;stroke-miterlimit:4;stroke-dasharray:none;stroke-opacity:0.98843934"
   id="rect4580"
   width="24.717434"
   height="23.98024"
   x="-0.36509848"
   y="0.10967298" />


<g
   transform="translate(0.5,1.2000008)"
   id="g15416"
   style="fill:#ff0000"><path
     d="M 7.6,3.7 C 7.7,3.4 7.5,3.2 7.2,3.1 L 5.8,2.8 C 5.6,2.7 5.3,2.9 5.2,3.2 L 4,8.2 C 3.9,8.4 4.1,8.7 4.4,8.8 L 5.8,9.1 C 6.1,9.2 6.4,9 6.4,8.8 Z"
     id="path15408"
     inkscape:connector-curvature="0"
     style="fill:#ff0000" /><path
     d="m 5,20.5 v 0.2 c 0,0.8 0.5,1.3 1.2,1.3 0.6,0 1,-0.4 1.2,-0.9 l 2.1,-8.7 2,8.6 c 0.1,0.5 0.6,0.9 1.2,0.9 0.7,0 1.2,-0.5 1.2,-1.2 0,-0.1 0,-0.2 0,-0.3 l -2.8,-11.3 0.2,-1 0.2,0.8 c 0.2,0.5 0.6,0.6 0.6,0.6 l 2.8,0.7 h 0.2 c 0.5,0 0.8,-0.4 0.8,-0.8 C 15.9,9 15.6,8.7 15.3,8.6 L 12.9,8 12.2,5.3 C 11.8,4.1 10,4 10,4 9.3,4 8.7,5.2 8.7,5.2 Z"
     id="path15410"
     inkscape:connector-curvature="0"
     style="fill:#ff0000" /><path
     d="M 11.9,3 H 11.1 C 10.5,3 10,2.5 10,1.9 V 1.1 C 10,0.5 10.5,0 11.1,0 h 0.8 C 12.5,0 13,0.5 13,1.1 V 1.9 C 13,2.5 12.5,3 11.9,3 Z"
     id="path15412"
     inkscape:connector-curvature="0"
     style="fill:#ff0000" /><rect
     x="17.799999"
     y="5"
     width="1.2"
     height="17"
     id="rect15414"
     style="fill:#ff0000" /></g></svg>